<?xml version="1.0" encoding="utf-8"?>
<!-- Generator: Adobe Illustrator 19.1.1, SVG Export Plug-In . SVG Version: 6.00 Build 0)  -->
<svg version="1.1" id="Layer_1" xmlns="http://www.w3.org/2000/svg" xmlns:xlink="http://www.w3.org/1999/xlink" x="0px" y="0px"
	 viewBox="-224 219.5 392.5 156.8" style="enable-background:new -224 219.5 392.5 156.8;" xml:space="preserve">
<style type="text/css">
	.st0{fill:#ACDAE9;}
	.st1{fill:#3595D2;}
	.st2{fill:#6BA4CA;}
	.st3{fill:#194966;}
</style>
<g>
	<path class="st0" d="M-58,323c-1.2-5.3-3.2-10.4-5.7-15.2c-4.7-9-9.7-17.8-14.4-26.8c-4.1-7.7-8.3-15.4-11.8-23.3
		c-3.3-7.4-6-15-8.6-22.7c-1.6-4.6-2.5-9.4-3.6-14.1v-0.1c-0.4-1.7-2.8-1.7-3.2,0c-0.8,3.6-1.8,7.9-2.7,11.7c-0.5,2-1,3.9-1.5,5.4
		c-3.2,9.8-7.2,19.3-11.9,28.4c-3.3,6.4-6.8,12.8-10.3,19.1c-1.4,2.6-2.9,5.3-4.3,7.9c-4.2,7.7-8.4,15.4-11.5,23.7
		c-3.4,8.9-3.1,17.8-0.4,26.7c1.6,5.3,4.2,10.2,7.6,14.6c0.6,0.8,1.2,1.5,1.9,2.2c6.2,7,13.8,11.8,23,14.2c2.4,0.6,4.9,1,7.4,1.4
		c0.5,0.1,0.9,0.1,1.4,0.2c2.1,0,4.2,0,6.3,0c0.2-0.1,0.4-0.2,0.6-0.2c11.6-1.1,21.8-5.8,30.4-14.8c5.1-5.4,8.7-12.1,10.7-19.3
		C-57.1,335.8-56.5,329.5-58,323z M-67.7,344.4c-0.5,1.1-1.1,2.1-1.7,3.1c-2,3.2-4.6,5.9-7.6,8.3c-0.9,0.8-1.9,1.5-2.9,2.2
		c10-18.1,11.7-36.7,4.1-56c0.3,0.4,0.6,0.8,0.9,1.3c0.3,0.4,0.5,0.9,0.8,1.4c0.2,0.3,0.4,0.6,0.6,1c2.7,4.7,5.2,9.6,6.7,14.8
		C-64.5,328.5-64,336.6-67.7,344.4z"/>
	<path class="st1" d="M-185.8,294.2c2.1-3.8,4.2-7.7,6.3-11.5c-1.9-3.6-3.8-7.2-5.4-10.9c-2.1-4.8-3.9-9.8-5.6-14.8
		c-1-3-1.6-6.1-2.3-9.2c0,0,0,0,0-0.1c-0.3-1.1-1.8-1.1-2.1,0c-0.8,3.6-1.9,8.2-2.8,11.1c-2.1,6.4-4.7,12.6-7.7,18.5
		s-6.3,11.8-9.5,17.6c-2.7,5-5.5,10-7.5,15.4c-2.2,5.8-2,11.6-0.3,17.4c1,3.5,2.7,6.6,5,9.5c4.2,5.4,9.6,9,16.2,10.7
		c1.9,0.5,3.8,0.7,5.7,1.1c1.4,0,2.7,0,4.1,0c0.1,0,0.3-0.1,0.4-0.1c0.7-0.1,1.3-0.2,2-0.3c-2.9-3.7-5-7.8-6.4-12.2
		c-2.3-7.5-2.5-14.9,0.4-22.4C-192.8,307.1-189.3,300.6-185.8,294.2z"/>
	<path class="st2" d="M-142.2,293.4c2.9-5.4,5.9-10.7,8.8-16.1c-2.3-4.3-4.6-8.7-6.6-13.2c-2.8-6.2-5-12.6-7.2-19
		c-1.3-3.8-2.1-7.9-3-11.9c0,0,0,0,0-0.1c-0.3-1.4-2.4-1.4-2.7,0c-0.6,2.8-1.4,6.2-2.1,9.2c-0.5,1.9-1,3.7-1.4,5.1
		c-2.7,8.2-6,16.2-10,23.9c-3.1,6-6.3,11.8-9.5,17.7c-0.9,1.7-1.8,3.3-2.7,5c-3.5,6.5-7,13-9.7,19.9c-2.8,7.5-2.6,14.9-0.4,22.4
		c1.2,3.9,2.9,7.4,5.3,10.7c0.4,0.5,0.7,1,1.1,1.5c5.4,6.9,12.4,11.6,20.9,13.8c2.1,0.5,4.2,0.8,6.3,1.2c0.3,0.1,0.7,0.1,1,0.2
		c1.8,0,3.5,0,5.3,0c0.2-0.1,0.3-0.1,0.5-0.1c2-0.2,3.9-0.5,5.8-0.9c-1.4-1.4-2.7-2.8-3.9-4.4c-3.4-4.4-6-9.3-7.6-14.6
		c-2.7-8.9-3-17.8,0.4-26.7C-150.6,308.9-146.5,301.1-142.2,293.4z"/>
</g>
<g>
	<path class="st3" d="M141.5,291.8c-0.4,0.7-1,1.2-1.9,1.7c-0.9,0.4-1.9,0.8-2.9,1c-0.3,0-0.4,0.1-0.6,0.1s-0.4,0-0.5,0.1
		c-0.5,0-0.9,0.1-1.4,0.1s-1,0-1.4,0c-1.3,0-2.6-0.1-3.8-0.3c-1.3-0.2-2.4-0.5-3.3-1c-0.8-0.3-1.3-0.8-1.8-1.3
		c-0.4-0.5-0.6-1-0.6-1.5c0-0.3,0.1-0.5,0.3-0.8c0.2-0.3,0.4-0.6,0.7-0.8c0.8-0.6,1.9-1.1,3.2-1.4c1.3-0.3,2.6-0.5,4-0.6
		c0.2,0,0.3,0,0.5,0c0.1,0,0.3,0,0.5,0c0.6,0,1.3,0,1.9,0.1c0.6,0,1.2,0.1,1.8,0.3c0.2,0,0.4,0.1,0.5,0.1s0.3,0.1,0.4,0.1
		c1.2,0.3,2.3,0.8,3.3,1.3c1,0.6,1.5,1.3,1.5,2.1c0,0.1,0,0.2-0.1,0.4C141.6,291.5,141.6,291.7,141.5,291.8L141.5,291.8z"/>
	<path class="st3" d="M117.7,287.5c0.8,0.4,1.5,0.9,1.9,1.5c0.5,0.6,0.8,1.2,0.9,1.8c0,0.1,0,0.1,0,0.2s0,0.2,0,0.3
		c0,0.9-0.5,1.8-1.4,2.6c-0.9,0.8-2.3,1.3-4.1,1.5c-0.1,0-0.2,0-0.3,0c-0.1,0-0.3,0-0.4,0s-0.2,0-0.4,0c-0.1,0-0.2,0-0.3,0
		c-2,0-3.6-0.4-4.9-1.2c-1.3-0.8-1.9-1.7-1.9-2.7c0-0.1,0-0.1,0-0.2s0-0.1,0-0.2c0.1-0.5,0.4-1.1,1-1.6c0.5-0.5,1.4-0.9,2.4-1.2
		c0,0-0.1,0-0.2,0s-0.2,0-0.3,0c-1.8,0-3.3,0.5-4.5,1.6c-1.3,1-2.3,2.2-3.1,3.5c-0.5,0.8-1,1.6-1.4,2.4s-0.7,1.4-0.9,1.9h7.9
		l-1.5,2.6h-8L82.4,329H67l15.9-28.8h-5.1l1.5-2.6h5.1c0.2-0.4,0.4-0.7,0.5-1c0.1-0.4,0.3-0.7,0.5-1c0.9-1.5,1.8-3,2.9-4.4
		c1.1-1.3,2.9-2.5,5.4-3.5c1.5-0.6,3.5-1.1,5.7-1.5c2.3-0.4,4.6-0.6,6.9-0.6c0.1,0,0.3,0,0.4,0s0.2,0,0.4,0c2,0,4,0.1,5.8,0.4
		C114.8,286.3,116.4,286.8,117.7,287.5L117.7,287.5z"/>
	<path class="st3" d="M144.4,307.3c-0.5-0.2-1-0.4-1.5-0.5s-1-0.3-1.4-0.4c-0.2-0.1-0.5-0.1-0.7-0.2c-0.3-0.1-0.5-0.1-0.7-0.2
		c-0.6,0.8-1.2,1.5-1.9,2.2c-0.6,0.7-1.5,1.4-2.5,2.1c-0.8,0.4-1.5,0.8-2.2,1s-1.3,0.3-1.7,0.3c-0.6,0-1.1,0-1.3-0.1
		c-0.3-0.1-0.4-0.3-0.4-0.5s0.1-0.5,0.2-0.7c0.1-0.3,0.3-0.5,0.4-0.8c0.7-1.3,1.4-2.6,2.1-3.9s1.5-2.6,2.2-3.9
		c0.4-0.6,0.7-1.3,1.1-2c0.4-0.6,0.8-1.3,1.1-1.9c-1.4,0-2.8,0-4.2,0c-1.4,0-2.8,0-4.2,0c-1.4,0-2.9,0-4.3,0s-2.8,0-4.2,0
		c-0.9,1.7-1.8,3.3-2.7,4.9s-1.8,3.3-2.7,4.9c-0.1,0.2-0.2,0.4-0.3,0.6c-0.1,0.2-0.2,0.4-0.3,0.6c-0.2,0.4-0.3,0.8-0.4,1.3
		c-0.1,0.4-0.1,0.8-0.1,1.2c0,1.2,0.5,2.3,1.4,3.3s2.4,1.7,4.6,2.2c0.8,0.2,1.6,0.3,2.5,0.4s1.7,0.1,2.6,0.1c0.1,0,0.3,0,0.4,0
		s0.3,0,0.4,0c2.1-0.1,4-0.3,6-0.8c1.9-0.4,3.6-1,5-1.8c1.5-0.9,2.9-1.8,4-2.9c1.1-1,2.1-2.2,3-3.3c0.1-0.2,0.3-0.4,0.5-0.5
		C144.1,307.6,144.2,307.5,144.4,307.3L144.4,307.3z"/>
	<path class="st3" d="M168.6,307.3c-2.1,2.7-4.5,5-7.3,6.9s-6.9,2.8-12.3,2.8c-0.3,0-0.6,0-0.9,0s-0.6,0-0.9,0
		c-1.4-0.1-2.8-0.3-4.2-0.7c-1.4-0.3-2.5-0.9-3.3-1.6c-0.6-0.5-1-1.1-1.3-1.7s-0.4-1.2-0.4-1.8c0-0.1,0-0.3,0-0.4s0.1-0.3,0.1-0.4
		c0.1-0.5,0.3-1,0.4-1.5c0.2-0.5,0.4-1,0.7-1.4c1.9-3.4,3.8-6.8,5.6-10.2c1.9-3.4,3.7-6.8,5.6-10.2c1.4,0,2.8,0,4.2,0
		c1.4,0,2.8,0,4.3,0c1.4,0,2.8,0,4.2,0c1.4,0,2.8,0,4.2,0c-2.1,3.7-4.1,7.4-6.2,11.2c-2.1,3.7-4.1,7.4-6.1,11.2
		c-0.2,0.3-0.4,0.6-0.5,0.9s-0.2,0.5-0.2,0.6c0,0.2,0.1,0.4,0.4,0.5s0.7,0.1,1.4,0.1c0.5,0,1-0.1,1.7-0.3c0.7-0.3,1.4-0.6,2.2-1
		c1-0.6,1.9-1.3,2.5-2.1c0.7-0.7,1.3-1.4,1.9-2.2L168.6,307.3z"/>
	<path class="st3" d="M-2.3,301.7c0,9.3-7.6,16.6-16.8,16.6s-16.8-7.3-16.8-16.6c0-9.2,7.6-16.7,16.8-16.7S-2.3,292.4-2.3,301.7z
		 M-32.3,301.6c0,7.3,5.9,13.3,13.2,13.3s13.2-6.1,13.2-13.3c0-7.3-5.8-13.3-13.2-13.3S-32.3,294.3-32.3,301.6z"/>
	<path class="st3" d="M10.7,301.9c-0.5-1.1-1.5-2.1-2.7-2.1s-2.5,0.9-2.5,2.2c0,1.8,2.3,2.5,4.7,3.5c2.3,1,4.7,2.4,4.7,5.8
		c0,3.8-3.1,6.5-6.8,6.5c-3.4,0-6-1.9-7.1-5.1l3-1.3c0.9,1.9,1.8,3.2,4.1,3.2c1.8,0,3.2-1.2,3.2-3.1c0-4.5-9.1-2.9-9.1-9.3
		c0-3.4,2.7-5.7,6-5.7c2.3,0,4.4,1.6,5.3,3.7L10.7,301.9z"/>
	<path class="st3" d="M23,299.8L23,299.8c1.2-1.7,2.9-2.7,4.9-2.7c2.3,0,4.5,1.2,5.6,3.3c1.2-2.2,3.6-3.3,6-3.3
		c5.1,0,6.4,4.2,6.4,8.4v12.2h-3.4V306c0-2.6-0.2-5.8-3.7-5.8c-3.9,0-4.4,3.8-4.4,6.8v10.6H31v-11.4c0-2.5-0.3-6.1-3.6-6.1
		c-4,0-4.4,4.1-4.4,7.1v10.4h-3.4v-20.1H23V299.8z"/>
	<path class="st3" d="M50.6,307.7c0-5.9,4.7-10.6,10.6-10.6s10.6,4.7,10.6,10.6s-4.7,10.6-10.6,10.6
		C55.3,318.3,50.6,313.6,50.6,307.7z M54,307.7c0,4.1,2.9,7.4,7.1,7.4s7.1-3.3,7.1-7.4s-2.9-7.4-7.1-7.4S54,303.6,54,307.7z"/>
</g>
</svg>
